# xmcd
#
# Track frame offsets:
#	150
#	28385
#	65538
#	83133
#	111398
#	138558
#	167448
#	192008
#	222450
#	250185
#
# Disc length: 3775 seconds
#
# Revision: 3
# Processed by: cddbd v1.5.2PL0 Copyright (c) Steve Scherf et al.
# Submitted via: EZCDAudioConverter 8.0.2.1
#
DISCID=910ebd0a
DTITLE=Various Artist - Ecstasy New Wave
DYEAR=1990
DGENRE=World Pop
TTITLE0=Julie - Cơn lốc của tình yêu
TTITLE1=Thụy Du - Yêu em mãi
TTITLE2=Kim Ngân - Là tình yêu
TTITLE3=Trung Hanh - Vẫn mãi yêu em
TTITLE4=Thái Thảo - Tuấn Đức - Đêm buồn xót xa
TTITLE5=Julie - Em đã làm chi
TTITLE6=Thụy Du - Tình em xa vắng
TTITLE7=Tuyết Nhung - Tình nồng trao anh
TTITLE8=Thứy Vi - Mơ ước bên người
TTITLE9=Billy Shane - Ngất say men tình
EXTD=
EXTT0=
EXTT1=
EXTT2=
EXTT3=
EXTT4=
EXTT5=
EXTT6=
EXTT7=
EXTT8=
EXTT9=
PLAYORDER=
